:SAMPLES-PER-SECOND 30
:FULLY-SPECIFIED
:DEGREES
229
root  46.7085 39.2455 -0.19047 52.5577 -86.9652 -54.4328
RightUpLeg  -7.4653 -13.7203 3.01841
RightLeg  22.1062 -5.29312 1.27804
RightFoot  -11.853 -0.0987219 -4.15412
RightToes  0.00048216 0.542163 -0.142577
Spine  10.4215 -0.342287 12.0223
Spine1  6.88049 1.2083 0.115321
HEad  -5.30969 -0.491368 -3.62568
LeftShoulder1  8.38804 -12.537 -45.5886
LeftArm  -5.37216 20.1421 -31.0365
LeftForeArm  25.0866 -26.3151 -4.30954
LeftHand  -0.25398 0.0180481 5.50724
RightShoulder  4.90869 8.49214 34.9592
RightArm  4.92931 -17.9428 36.9872
RightForeArm  139.337 74.9648 138.703
RightHand  -2.37361 6.86992 -22.6023
LeftUpLeg  -19.612 1.19794 1.80772
LeftLeg  59.9066 4.14878 8.24713
LeftFoot  2.58589 0.103383 -0.98248
LeftToes  1.06246e-005 4.65856e-005 -8.18502e-006
230
root  45.2881 39.4613 -0.303624 56.3555 -88.4456 -58.739
RightUpLeg  -2.99495 -11.2987 1.06232
RightLeg  19.322 -6.5617 2.2054
RightFoot  -12.8999 -0.135858 -3.60087
RightToes  0.00048216 0.542163 -0.142577
Spine  10.4466 0.496195 11.4457
Spine1  7.02368 2.28027 -1.46778
HEad  -5.0424 -1.07329 -3.69583
LeftShoulder1  8.4089 -12.5829 -45.5712
LeftArm  -5.3016 20.7333 -30.5854
LeftForeArm  25.6069 -25.8676 -4.18512
LeftHand  -0.25398 0.0180481 5.50724
RightShoulder  4.92992 8.53499 34.9895
RightArm  5.38882 -16.0006 37.2344
RightForeArm  139.474 74.9062 138.895
RightHand  -2.27136 6.52327 -22.2652
LeftUpLeg  -21.7827 1.73874 0.615922
LeftLeg  52.8631 5.29886 7.91767
LeftFoot  0.861973 0.121545 -1.20071
LeftToes  1.06246e-005 4.65856e-005 -8.18502e-006
231
root  43.8746 39.5153 -0.399791 78.8912 -89.2766 -81.5381
RightUpLeg  0.829325 -9.82398 -0.0591129
RightLeg  17.0766 -7.13301 2.96103
RightFoot  -14.2037 -0.172966 -3.07214
RightToes  0.00048216 0.542163 -0.142577
Spine  10.2649 1.07018 11.2639
Spine1  7.2415 3.02215 -2.77938
HEad  -5.30348 -1.25878 -3.65195
LeftShoulder1  8.44245 -12.6368 -45.6015
LeftArm  -5.20113 21.4918 -30.0723
LeftForeArm  26.0829 -25.2689 -4.03175
LeftHand  -0.25398 0.0180481 5.50724
RightShoulder  4.94621 8.58674 34.9496
RightArm  6.36324 -13.8487 37.2159
RightForeArm  139.524 74.9027 138.914
RightHand  -2.17237 6.19094 -21.9158
LeftUpLeg  -22.9571 2.84582 -0.0803135
LeftLeg  42.9383 5.91978 6.26857
LeftFoot  0.289739 0.238282 -2.3486
LeftToes  1.06246e-005 4.65856e-005 -8.18502e-006
232
root  42.4349 39.4705 -0.475188 128.835 -89.289 -131.373
RightUpLeg  4.07394 -9.27139 -0.656221
RightLeg  15.1904 -6.89006 3.51203
RightFoot  -15.3179 -0.202305 -2.83057
RightToes  0.00048216 0.542163 -0.142577
Spine  9.5587 1.51524 11.346
Spine1  7.70742 3.58455 -4.04664
HEad  -5.82606 -1.2572 -3.57112
LeftShoulder1  8.49048 -12.7228 -45.6187
LeftArm  -4.98246 22.3592 -29.6038
LeftForeArm  26.3153 -24.4476 -3.84402
LeftHand  -0.25398 0.0180481 5.50724
RightShoulder  4.97572 8.66001 34.9458
RightArm  7.60937 -11.7638 36.9043
RightForeArm  139.777 74.9331 138.879
RightHand  -2.15507 6.20936 -21.7155
LeftUpLeg  -23.1471 5.21754 -0.956313
LeftLeg  30.2762 4.38551 3.35986
LeftFoot  0.950899 0.271554 -2.57946
LeftToes  1.06246e-005 4.65856e-005 -8.18502e-006
233
root  40.9915 39.4084 -0.532314 170.908 -88.6775 -173.413
RightUpLeg  7.4614 -9.22662 -1.52767
RightLeg  13.196 -5.85381 3.92958
RightFoot  -16.2418 -0.21913 -2.56212
RightToes  0.00048216 0.542163 -0.142577
Spine  8.96995 1.92229 11.0425
Spine1  8.47604 4.20848 -5.41807
HEad  -6.42186 -1.14284 -3.46729
LeftShoulder1  8.50828 -12.7536 -45.6284
LeftArm  -4.82822 23.2717 -29.2719
LeftForeArm  26.6194 -23.4507 -3.64704
LeftHand  -0.25398 0.0180481 5.50724
RightShoulder  5.0426 8.80009 35.0225
RightArm  9.01112 -9.86989 36.2776
RightForeArm  139.891 75.0009 138.71
RightHand  -2.19601 6.43844 -21.7039
LeftUpLeg  -22.0523 7.53391 -1.83727
LeftLeg  15.9284 2.13361 0.104388
LeftFoot  2.03331 0.30031 -2.66102
LeftToes  1.06246e-005 4.65856e-005 -8.18502e-006
